<svg xmlns="http://www.w3.org/2000/svg" viewBox="0 0 512 512">
  <defs>
    <linearGradient id="bg" x1="0" y1="0" x2="1" y2="1">
      <stop offset="0" stop-color="#bf5a2a"/>
      <stop offset="1" stop-color="#8f3d18"/>
    </linearGradient>
  </defs>
  <rect width="512" height="512" rx="112" fill="url(#bg)"/>
  <circle cx="256" cy="256" r="164" fill="none" stroke="#fff" stroke-width="22" opacity="0.9"/>
  <g fill="none" stroke="#fff" stroke-width="24" stroke-linecap="round" stroke-linejoin="round">
    <path d="M200 156v72M200 356v-56M200 300a44 44 0 0 1-88 0c0-40 44-40 44-72M248 300c0-72 0-144 16-144s16 144 16 144"/>
    <path d="M330 156c8 30 28 40 40 64 22 44-10 90-54 82-22 44-28 54-34 54"/>
    <path d="M320 212h44"/>
  </g>
</svg>
